<svg xmlns="http://www.w3.org/2000/svg" viewBox="0 0 1349.25 381.95"><defs><style>.cls-1{fill:none;}</style></defs><title>Recurso 11</title><g id="Capa_2" data-name="Capa 2"><g id="BEVENT"><g id="b"><path class="cls-1" d="M214,181a67.76,67.76,0,0,0-61,38.18V278A67.71,67.71,0,1,0,214,181Z"/><path d="M214,129.2a119.14,119.14,0,0,0-61,16.69V33.5a33.5,33.5,0,0,0-67,0V307c0,3.36-3.56,8-9,8-8,0-10-6-10-9s-1-33-34-33S0,306,0,306c0,27,20,76,76,76,34.21,0,55.35-17.16,66.63-37.59a119.62,119.62,0,0,0,191-95.79C333.58,182.64,280,129.2,214,129.2Zm0,187A67.76,67.76,0,0,1,153,278V219.13a67.72,67.72,0,1,1,61,97.07Z"/></g><g id="n"><path d="M1140.88,171.45c-.12-.16-.24-.33-.36-.48l-.13-.16c-22-27.5-51.5-42.38-89.5-42.38a119.7,119.7,0,0,0-78.14,28.89V149.2a21,21,0,0,0-42,0V348a21,21,0,1,0,42,0V248.57h.09a78.12,78.12,0,0,1,130.4-54.5V348a21,21,0,1,0,42,0V184.23A20.9,20.9,0,0,0,1140.88,171.45Z"/></g><g id="v"><path d="M745.53,149.85a21.08,21.08,0,0,0-39.28-10.65h0L616.69,310.32l-90.4-171.13h0a21.08,21.08,0,0,0-36.5,21.08h0L591.81,349.77h0a27.57,27.57,0,0,0,49.75,0h0L742.78,160.28h0A20.93,20.93,0,0,0,745.53,149.85Z"/></g><path d="M1328.25,159a21,21,0,1,0,0-42h-88.63V30.13a30.13,30.13,0,1,0-60.26,0V117h-34.12v42h34.12V337.47a30.13,30.13,0,1,0,60.26,0V159Z"/><circle cx="1328.25" cy="346.6" r="21"/><g id="ee"><path class="cls-1" d="M476.1,220.2a73,73,0,0,0-137.2,0Z"/><path d="M528,245.2A120.5,120.5,0,1,0,407.5,365.7c34.75,0,64.27-12.71,86.21-36.19A23,23,0,0,0,463.51,295h0l-.07.07c-.63.49-1.23,1-1.81,1.56l-.62.54C447.71,311,428.26,318.2,407.5,318.2a73,73,0,0,1-69.22-49.76c-.69-2-1.27-4.12-1.78-6.24H526.69v0l.12,0A120.74,120.74,0,0,0,528,245.2Zm-120.5-73a73,73,0,0,1,68.6,48H338.9A73,73,0,0,1,407.5,172.2Z"/><path class="cls-1" d="M892.35,222.1a73,73,0,0,0-137.2,0Z"/><path d="M944.25,247.1a120.5,120.5,0,1,0-120.5,120.5c34.75,0,64.27-12.71,86.21-36.18a23,23,0,0,0-30.2-34.57h0l-.07.07a22.11,22.11,0,0,0-1.81,1.55l-.62.54c-13.29,13.91-32.74,21.09-53.5,21.09a73,73,0,0,1-69.22-49.75c-.69-2-1.27-4.13-1.78-6.25H942.94v0l.12,0A120.63,120.63,0,0,0,944.25,247.1Zm-120.5-73a73,73,0,0,1,68.6,48H755.15A73,73,0,0,1,823.75,174.1Z"/></g></g></g></svg>