<svg xmlns="http://www.w3.org/2000/svg" viewBox="0 0 35.41 41.86"><defs><style>.cls-1{fill:#c97392;}</style></defs><title>Recurso 21</title><g id="Capa_2" data-name="Capa 2"><g id="Capa_4" data-name="Capa 4"><path class="cls-1" d="M35.38,23.1a.8.8,0,0,0-.86-.76.82.82,0,0,0-.77.86c0,.1,0,.21,0,.31a72.18,72.18,0,0,1-7.29,1.28,52.54,52.54,0,0,0-.42-6.94s0-.09,0-.14c2-.26,3.94-.62,5.88-1.06.12.22.23.45.34.68a.83.83,0,0,0,1.09.4.81.81,0,0,0,.39-1.09A17.71,17.71,0,0,0,21.65,6.89a4,4,0,0,0-3.14-3.31V.82a.82.82,0,0,0-1.64,0V3.58A4,4,0,0,0,13.72,6.9,17.65,17.65,0,0,0,2.38,15.29h0q-.36.62-.66,1.26a17.71,17.71,0,0,0,16,25.3,17.69,17.69,0,0,0,17.7-17.7C35.41,23.81,35.4,23.45,35.38,23.1Zm-1.63,2.09a16,16,0,0,1-2,6.7c-2,.47-4,.83-6,1.1.27-1.57.48-3.17.6-4.78,0-.58.07-1.17.09-1.76A72,72,0,0,0,33.75,25.19Zm-15.23,15V35.15c1.73,0,3.45-.12,5.17-.28a41.59,41.59,0,0,1-1.36,4.68A15.91,15.91,0,0,1,18.52,40.21Zm-5.44-.66a43.79,43.79,0,0,1-1.36-4.68c1.72.16,3.45.25,5.17.28v5.06A16,16,0,0,1,13.08,39.55ZM1.67,25.19A72.3,72.3,0,0,0,9,26.45c0,.59.06,1.18.1,1.76A47.28,47.28,0,0,0,9.67,33c-2-.27-4-.63-6-1.1A15.85,15.85,0,0,1,1.67,25.19Zm9,1.44q3.14.3,6.27.34V33.5c-1.84,0-3.68-.13-5.52-.31A46.48,46.48,0,0,1,10.62,26.63ZM11,18.11l0-.21c1.95.21,3.92.33,5.89.36v7.06c-2.11,0-4.22-.14-6.31-.35A49.75,49.75,0,0,1,11,18.11Zm5.29-10,.63,0v8.5c-1.89,0-3.78-.13-5.66-.33a45.54,45.54,0,0,1,1.84-7.5A15.54,15.54,0,0,1,16.26,8.15Zm2.58,0,.31,0a16.22,16.22,0,0,1,3.19.62,44.41,44.41,0,0,1,1.84,7.51c-1.88.2-3.77.31-5.66.33V8.11ZM18.52,33.5V27q3.15,0,6.27-.34A46.48,46.48,0,0,1,24,33.19C22.21,33.37,20.37,33.48,18.52,33.5Zm5.92-15.44a50.38,50.38,0,0,1,.4,6.91q-3.15.32-6.32.35V18.26q3,0,5.9-.36ZM31,15.17c-1.72.38-3.47.69-5.22.92a50.65,50.65,0,0,0-1.5-6.58A16.17,16.17,0,0,1,31,15.17Zm-13.34-10a2.38,2.38,0,0,1,2.19,1.45,17.89,17.89,0,0,0-3.43-.09l-.95.1A2.37,2.37,0,0,1,17.69,5.13ZM11.11,9.51a49,49,0,0,0-1.5,6.58Q7,15.75,4.38,15.17A16.34,16.34,0,0,1,11.11,9.51ZM3.18,17.27c.1-.21.21-.42.31-.62,2,.44,3.91.8,5.88,1.06a.59.59,0,0,1,0,.14,54.3,54.3,0,0,0-.42,6.94,72,72,0,0,1-7.28-1.28A15.84,15.84,0,0,1,3.18,17.27ZM4.89,33.84c1.69.35,3.4.63,5.11.84.31,1.4.68,2.78,1.11,4.13A16.07,16.07,0,0,1,4.89,33.84Zm19.41,5a41.17,41.17,0,0,0,1.11-4.13c1.72-.21,3.42-.49,5.11-.84A16,16,0,0,1,24.3,38.81Z"/></g></g></svg>