<svg xmlns="http://www.w3.org/2000/svg" viewBox="0 0 56.52 41.66"><defs><style>.cls-1{fill:#c97392;}</style></defs><title>Recurso 11</title><g id="Capa_2" data-name="Capa 2"><g id="Capa_4" data-name="Capa 4"><path class="cls-1" d="M56.46,36.19C55.87,34.05,53.09,32,48,30a65.19,65.19,0,0,0-6.84-2.27L11.11.29A1.08,1.08,0,0,0,10.36,0,9.4,9.4,0,0,0,3,3.88,14.61,14.61,0,0,0,0,12.9a16.6,16.6,0,0,0,.28,3l4,24.59a1.1,1.1,0,0,0,1.09.93H9.1a1.1,1.1,0,0,0,1.1-1l1.18-14.58c4.62.26,7,2.48,11.58,10.41,2.59,4.47,9.46,5.42,14.87,5.42h.24C44.43,41.63,50.9,40.29,54,39,54.79,38.66,56.9,37.78,56.46,36.19Zm-48.38,3H6.28L3.62,22.72a9.86,9.86,0,0,0,4.21,2.7,10.36,10.36,0,0,0,1.34.3Zm39.46-.72a50,50,0,0,1-12.64.85c-3.62-.28-8.31-1.23-10-4.21C19.92,26.62,17,23.59,10.36,23.59a6.54,6.54,0,0,1-2.81-.65A9.4,9.4,0,0,1,3.1,17.77a13.72,13.72,0,0,1-.89-4.87c0-5.64,3.35-10.28,7.58-10.67,1.12,1.68,4.8,7.2,9.2,13.47a1.11,1.11,0,1,0,1.81-1.27c-1.56-2.23-3-4.36-4.34-6.26L38.94,28.71a5.11,5.11,0,0,1-3.59,1.5c-2.3-.18-5.11-2.75-9.42-8.6a1.11,1.11,0,1,0-1.78,1.31c4.86,6.59,8,9.25,11,9.49h.44c1.74,0,3.43-.8,5.26-2.49C42,30.24,44.54,31,47.14,32c5.1,2,6.61,3.59,7,4.4C53.52,36.88,51.46,37.75,47.54,38.5Z"/></g></g></svg>