<svg xmlns="http://www.w3.org/2000/svg" viewBox="0 0 35.38 41.82"><defs><style>.cls-1{fill:#c97392;}</style></defs><title>Recurso 41</title><g id="Capa_2" data-name="Capa 2"><g id="Capa_4" data-name="Capa 4"><path class="cls-1" d="M33.74,22.48h-1V10.57A1.61,1.61,0,0,0,31.11,9H25.39V7.29A2.62,2.62,0,0,0,26.9,3.65L25.3.45A.83.83,0,0,0,24.57,0a.84.84,0,0,0-.74.45l-1.59,3.2a2.61,2.61,0,0,0,1.51,3.64V9H18.51V7.29A2.61,2.61,0,0,0,20,3.65L18.42.45A.83.83,0,0,0,17.69,0,.82.82,0,0,0,17,.45l-1.6,3.2a2.57,2.57,0,0,0,.11,2.53,2.59,2.59,0,0,0,1.4,1.11V9H11.63V7.29A2.59,2.59,0,0,0,13,6.18a2.57,2.57,0,0,0,.11-2.53L11.54.45A.82.82,0,0,0,10.81,0a.83.83,0,0,0-.73.45l-1.6,3.2A2.57,2.57,0,0,0,8.6,6.18,2.54,2.54,0,0,0,10,7.29V9H4.27a1.61,1.61,0,0,0-1.61,1.61V22.48h-1A1.64,1.64,0,0,0,0,24.12V40.18a1.64,1.64,0,0,0,1.64,1.64h32.1a1.64,1.64,0,0,0,1.64-1.64V24.12A1.64,1.64,0,0,0,33.74,22.48Zm-10-17.16a1,1,0,0,1,0-.94l.87-1.73.86,1.73a1,1,0,0,1-1.69.94Zm-6.87,0a1,1,0,0,1-.05-.94l.87-1.73.86,1.73a.93.93,0,0,1,0,.94,1,1,0,0,1-1.64,0ZM10,5.32a.93.93,0,0,1,0-.94l.86-1.73.87,1.73A1,1,0,0,1,10,5.32ZM4.3,10.6H31.08v1.16h-.15c-1,0-1.82,1.13-1.82,2.63a1.63,1.63,0,0,1-.26,1h-.1a1.63,1.63,0,0,1-.26-1c0-1.5-.78-2.63-1.82-2.63h-.21c-1,0-1.82,1.13-1.82,2.63a1.63,1.63,0,0,1-.26,1h-.1a1.63,1.63,0,0,1-.26-1c0-1.5-.78-2.63-1.81-2.63H22c-1,0-1.82,1.13-1.82,2.63a1.63,1.63,0,0,1-.26,1h-.1a1.71,1.71,0,0,1-.26-1c0-1.5-.78-2.63-1.81-2.63s-1.82,1.13-1.82,2.63a1.63,1.63,0,0,1-.26,1h-.1a1.63,1.63,0,0,1-.26-1c0-1.5-.78-2.63-1.82-2.63h-.21c-1,0-1.82,1.13-1.82,2.63a1.63,1.63,0,0,1-.26,1h-.1a1.63,1.63,0,0,1-.26-1c0-1.5-.78-2.63-1.82-2.63H8.8c-1,0-1.82,1.13-1.82,2.63a1.63,1.63,0,0,1-.26,1h-.1a1.63,1.63,0,0,1-.26-1c0-1.5-.78-2.63-1.82-2.63H4.3V10.6Zm0,10.18H20.71a.82.82,0,0,0,.84-.76.81.81,0,0,0-.81-.88H4.3V13.4a.29.29,0,0,1,.26.16,2,2,0,0,1,.16.82c0,1.5.78,2.63,1.82,2.63H6.8c1,0,1.82-1.13,1.82-2.63a1.63,1.63,0,0,1,.26-1h0a1.63,1.63,0,0,1,.26,1C9.19,15.88,10,17,11,17h.26c1,0,1.82-1.13,1.82-2.63a1.63,1.63,0,0,1,.26-1h.05a1.63,1.63,0,0,1,.26,1c0,1.5.78,2.63,1.82,2.63h.26c1,0,1.82-1.13,1.82-2.63a1.79,1.79,0,0,1,.18-.85,1.92,1.92,0,0,1,.18.85c0,1.5.78,2.63,1.81,2.63H20c1,0,1.82-1.13,1.82-2.63a1.63,1.63,0,0,1,.26-1h.05a1.63,1.63,0,0,1,.26,1c0,1.5.79,2.63,1.82,2.63h.26c1,0,1.82-1.13,1.82-2.63a1.63,1.63,0,0,1,.26-1h.05a1.63,1.63,0,0,1,.26,1c0,1.5.79,2.63,1.82,2.63h.26c1,0,1.82-1.13,1.82-2.63a1.63,1.63,0,0,1,.26-1h.07v5.74H27.32a.84.84,0,0,0-.85.77.82.82,0,0,0,.82.87h3.79v1.7H4.3Zm29.44,5h-.33c-1.14,0-2,1.27-2,3a1.82,1.82,0,0,1-.4,1.31h-.24a1.82,1.82,0,0,1-.4-1.31c0-1.69-.86-3-2-3H28.1c-1.14,0-2,1.27-2,3a1.82,1.82,0,0,1-.4,1.31h-.24a1.82,1.82,0,0,1-.4-1.31c0-1.69-.87-3-2-3H22.8c-1.15,0-2,1.27-2,3a1.82,1.82,0,0,1-.4,1.31h-.24a1.82,1.82,0,0,1-.4-1.31c0-1.69-.86-3-2-3s-2,1.27-2,3a1.82,1.82,0,0,1-.4,1.31H15.1a1.82,1.82,0,0,1-.4-1.31c0-1.69-.86-3-2-3h-.25c-1.14,0-2,1.27-2,3a1.82,1.82,0,0,1-.4,1.31H9.79a1.82,1.82,0,0,1-.4-1.31c0-1.69-.86-3-2-3H7.13c-1.14,0-2,1.27-2,3a1.82,1.82,0,0,1-.4,1.31H4.49a1.82,1.82,0,0,1-.4-1.31c0-1.69-.87-3-2-3H1.64V24.12h32.1Zm-32,1.64a.57.57,0,0,1,.52.33,2.69,2.69,0,0,1,.18,1c0,1.68.86,2.95,2,2.95h.31c1.14,0,2-1.27,2-2.95a1.83,1.83,0,0,1,.4-1.32h.18a1.83,1.83,0,0,1,.4,1.32c0,1.68.87,2.95,2,2.95h.31c1.14,0,2-1.27,2-2.95a1.83,1.83,0,0,1,.4-1.32h.19a1.83,1.83,0,0,1,.4,1.32c0,1.68.86,2.95,2,2.95h.3c1.15,0,2-1.27,2-2.95a2,2,0,0,1,.36-1.29,1.93,1.93,0,0,1,.37,1.29c0,1.68.86,2.95,2,2.95h.3c1.15,0,2-1.27,2-2.95a1.83,1.83,0,0,1,.4-1.32H23a1.83,1.83,0,0,1,.4,1.32c0,1.68.86,2.95,2,2.95h.31c1.14,0,2-1.27,2-2.95a1.83,1.83,0,0,1,.4-1.32h.18a1.83,1.83,0,0,1,.4,1.32c0,1.68.87,2.95,2,2.95H31c1.14,0,2-1.27,2-2.95a1.83,1.83,0,0,1,.4-1.32h.3v7.73H11.08a.84.84,0,0,0-.85.76.83.83,0,0,0,.82.88H33.74v3.37H1.64V36.81H4.47A.84.84,0,0,0,5.32,36a.82.82,0,0,0-.82-.87H1.64V27.45Z"/></g></g></svg>