<svg xmlns="http://www.w3.org/2000/svg" viewBox="0 0 29.64 41.84"><defs><style>.cls-1{fill:#c97392;}</style></defs><title>Recurso 51</title><g id="Capa_2" data-name="Capa 2"><g id="Capa_4" data-name="Capa 4"><path class="cls-1" d="M29.62,36.81a92.57,92.57,0,0,0-6-15.61c-1-2.14-2-4.35-2.94-6.66A7.36,7.36,0,0,0,22,7.82a14.42,14.42,0,0,0-1.4-3.55V.82a.82.82,0,0,0-1.64,0V4.5a4.1,4.1,0,0,1-8.2,0V.82A.82.82,0,0,0,9.9,0a.82.82,0,0,0-.82.82V4.27A14.32,14.32,0,0,0,7.67,7.82,7.35,7.35,0,0,0,9,14.55C8,16.86,7,19.06,6,21.2A91.69,91.69,0,0,0,0,36.81a.65.65,0,0,0,0,.31c.2,1.45,1.86,2.64,4.94,3.51a37.22,37.22,0,0,0,9.87,1.21,37.17,37.17,0,0,0,9.87-1.21c3.08-.87,4.74-2.06,4.94-3.51A.81.81,0,0,0,29.62,36.81ZM9.64,7A5.73,5.73,0,0,0,20,7c.67,1.84,1.16,4.58-.62,6.6H10.25C8.48,11.54,9,8.81,9.64,7ZM14,40.2a36.37,36.37,0,0,1-7.56-.87c1.3-6,3-11.71,4.87-17.71.6-1.95,1.28-4.15,1.95-6.42H14ZM1.66,37A92.06,92.06,0,0,1,7.5,21.88c1-2.15,2-4.36,2.95-6.68h1.11c-.63,2.1-1.25,4.13-1.81,5.94-1.84,6-3.58,11.68-4.89,17.76C2.66,38.2,1.83,37.44,1.66,37ZM24.78,38.9c-.73-3.42-1.67-7-3-11.49a.82.82,0,0,0-1-.55.81.81,0,0,0-.55,1c1.33,4.49,2.25,8.06,3,11.46a36.47,36.47,0,0,1-7.57.87v-25h.75c.67,2.27,1.35,4.47,1.95,6.42a.82.82,0,0,0,1.56-.48c-.56-1.82-1.18-3.84-1.81-5.94h1.11c1,2.32,2,4.53,2.95,6.68A92.06,92.06,0,0,1,28,37C27.81,37.44,27,38.2,24.78,38.9Z"/></g></g></svg>