<svg xmlns="http://www.w3.org/2000/svg" viewBox="0 0 40.57 41.18"><defs><style>.cls-1{fill:#c97392;}</style></defs><title>Recurso 71</title><g id="Capa_2" data-name="Capa 2"><g id="Capa_4" data-name="Capa 4"><path class="cls-1" d="M39.4,11.43a10.29,10.29,0,0,0-6.08-5.14,10.47,10.47,0,0,0-4.11-.46,9.75,9.75,0,0,0-17.85,0A10.43,10.43,0,0,0,.49,19.37a10.46,10.46,0,0,0,9.91,7.25h.29l.3,2.32a.82.82,0,0,0,1.09.65l1.13-.42A5.28,5.28,0,0,1,11.4,35.6.81.81,0,1,0,12.27,37a6.85,6.85,0,0,0,2.46-8.38l.94-.35a.85.85,0,0,0,.49-.51.82.82,0,0,0-.1-.7l-1-1.5a10.42,10.42,0,0,0,3-2.28l-.5,2.15a.81.81,0,0,0,.78,1h1.11v14a.81.81,0,1,0,1.62,0v-14H22.2a.81.81,0,0,0,.63-.31.82.82,0,0,0,.16-.69l-.51-2.15a10.38,10.38,0,0,0,2.27,1.86L23.46,27a.81.81,0,0,0,.39,1.21l.73.28.29.11a6.59,6.59,0,0,0,5.18,7.28.81.81,0,1,0,.33-1.58,4.94,4.94,0,0,1-3.93-5.11l1,.37a.82.82,0,0,0,1.09-.65l.31-2.4a11.69,11.69,0,0,0,1.32.08A10.4,10.4,0,0,0,39.4,11.43ZM20.28,1.62A8.14,8.14,0,0,1,27.92,7a9.62,9.62,0,0,1,.44,1.91,8.8,8.8,0,0,1,0,1.92c0,.37-.1.74-.17,1.11a17.8,17.8,0,0,1-2.27,5.75c-1.48,2.41-3.28,3.9-5,4.19a3.75,3.75,0,0,1-1.25,0c-1.72-.3-3.51-1.79-5-4.19a16.91,16.91,0,0,1-2.48-7.44,8.37,8.37,0,0,1,.42-3.1A8.15,8.15,0,0,1,20.28,1.62Zm-8,24.82c.4-.08.81-.18,1.2-.3l.63.93-1.67.63Zm1.27-2a11.16,11.16,0,0,1-1.12.35,11.24,11.24,0,0,1-1.16.2A8.79,8.79,0,0,1,7.74,7.83a8.65,8.65,0,0,1,2.66-.42h.42a9.69,9.69,0,0,0-.25,3.13,18.55,18.55,0,0,0,2.7,8,12.6,12.6,0,0,0,3.45,3.82A8.76,8.76,0,0,1,13.58,24.4Zm5.81.36.3-1.28a4.66,4.66,0,0,0,1.18,0l.3,1.28Zm7.85,1.43L27,27.7l-1.67-.63.84-1.24A9,9,0,0,0,27.24,26.19Zm11.28-7.31a8.8,8.8,0,0,1-10.25,5.91,9.88,9.88,0,0,1-2-.7,8.67,8.67,0,0,1-2.43-1.77,12.6,12.6,0,0,0,3.45-3.82A19.44,19.44,0,0,0,29.82,12a3.78,3.78,0,0,1,1.48-.31.81.81,0,1,0,0-1.62,5.54,5.54,0,0,0-1.28.16,10.13,10.13,0,0,0-.27-2.8,8.79,8.79,0,0,1,8.77,11.46Z"/></g></g></svg>