<svg xmlns="http://www.w3.org/2000/svg" viewBox="0 0 37.48 41.72"><defs><style>.cls-1{fill:#c97392;}</style></defs><title>Recurso 61</title><g id="Capa_2" data-name="Capa 2"><g id="Capa_4" data-name="Capa 4"><path class="cls-1" d="M17.16,4.63,9.26,3.09a.81.81,0,0,0-.86.39A39.87,39.87,0,0,0,4.28,14.76,19.78,19.78,0,0,0,3.91,19a14.6,14.6,0,0,0,.38,3.16c.06.29.14.58.23.87a6.33,6.33,0,0,0,3.31,4.23L6.12,36.42l-3.67-.71A2,2,0,0,0,.2,36.92a2.6,2.6,0,0,0-.12.46c0,.15-.06.3-.08.45a2.06,2.06,0,0,0,.41,1.35,2,2,0,0,0,1.21.75l9,1.75a2.05,2.05,0,0,0,2.05-.84,1.91,1.91,0,0,0,.26-.56,3.38,3.38,0,0,0,.14-.76,2,2,0,0,0-1.62-2.07l-3.68-.71,1.7-9.2a6.12,6.12,0,0,0,4.41-2.41q.16-.18.33-.39a15.79,15.79,0,0,0,2.47-4.61,21.17,21.17,0,0,0,.75-2.81,40.12,40.12,0,0,0,.43-12A.82.82,0,0,0,17.16,4.63ZM11.33,39.22a.42.42,0,0,1,.05.31,1,1,0,0,1-.07.3.37.37,0,0,1-.41.25l-9-1.75a.36.36,0,0,1-.26-.19.61.61,0,0,1,0-.4.65.65,0,0,1,.14-.34.38.38,0,0,1,.32-.09l9,1.75A.39.39,0,0,1,11.33,39.22ZM9.54,4.81l6.72,1.31A39.32,39.32,0,0,1,15.79,17c-.08.39-.16.77-.26,1.14h-10a18.29,18.29,0,0,1,.35-3.07A39.43,39.43,0,0,1,9.54,4.81Zm4.79,16.62a12.4,12.4,0,0,1-1.52,2.39,5.6,5.6,0,0,1-2.7,2,2.55,2.55,0,0,1-1.37,0,3.44,3.44,0,0,1-1.95-1.67A9.17,9.17,0,0,1,5.7,20.79c-.06-.33-.09-.67-.12-1H15C14.82,20.34,14.59,20.89,14.33,21.43Z"/><path class="cls-1" d="M14.35,14.2h.08a.81.81,0,0,0,.81-.74,38.52,38.52,0,0,0,.13-5.17.82.82,0,0,0-1.64.07,37,37,0,0,1-.12,5A.82.82,0,0,0,14.35,14.2Z"/><path class="cls-1" d="M37.45,37.58a3.26,3.26,0,0,0-.27-.87,2,2,0,0,0-2.14-1l-3.68.71-1.8-9.19c3.16-1.32,4.7-6.54,3.54-12.47A39.87,39.87,0,0,0,29,3.48a.81.81,0,0,0-.86-.39l-7.9,1.54a.81.81,0,0,0-.65.69,39.92,39.92,0,0,0,.42,12c1.16,5.93,4.55,10.19,8,10.22l1.79,9.2-3.68.71A2.06,2.06,0,0,0,24.5,39a2.62,2.62,0,0,0,.11,1.36,2,2,0,0,0,.79,1,2,2,0,0,0,1.5.3l9-1.75A2,2,0,0,0,37.45,37.58ZM21.12,6.12l6.72-1.31A39.34,39.34,0,0,1,31.5,15.07c0,.21.08.43.11.64H21.37A40.31,40.31,0,0,1,21.12,6.12ZM35.78,38.17a.36.36,0,0,1-.23.16l-9,1.75a.4.4,0,0,1-.32-.09.54.54,0,0,1-.14-.34.62.62,0,0,1,0-.38.36.36,0,0,1,.27-.21l9-1.75a.39.39,0,0,1,.42.25A.76.76,0,0,1,35.78,38.17Zm-8-12.27a3.69,3.69,0,0,1-1.92-.78,7.63,7.63,0,0,1-1.48-1.47,10.68,10.68,0,0,1-.72-1,15.64,15.64,0,0,1-1.14-2.28,18.56,18.56,0,0,1-.9-3H31.8a14.86,14.86,0,0,1-.31,4.46A10.26,10.26,0,0,1,31.12,23a4.23,4.23,0,0,1-2.45,2.77A2.36,2.36,0,0,1,27.83,25.9Z"/><path class="cls-1" d="M19.39.82a.82.82,0,0,0-1.64,0V3.48a.82.82,0,0,0,1.64,0Z"/><path class="cls-1" d="M15.25,3.1a.84.84,0,0,0,.7.39.85.85,0,0,0,.43-.12.81.81,0,0,0,.27-1.12l-1-1.66A.81.81,0,0,0,14.52.31a.83.83,0,0,0-.28,1.13Z"/><path class="cls-1" d="M20.93,3.37a.81.81,0,0,0,1.12-.27l1-1.66A.83.83,0,0,0,22.78.31a.82.82,0,0,0-1.12.28l-1,1.66A.82.82,0,0,0,20.93,3.37Z"/><path class="cls-1" d="M27.27,10.19c.32.85.6,1.71.84,2.59.1.34.15.71.49.91a.83.83,0,0,0,.94-.07.82.82,0,0,0,.27-.84c-.11-.43-.24-.85-.36-1.27s-.28-.86-.43-1.29c-.07-.21-.14-.43-.23-.64a.87.87,0,0,0-.28-.35.83.83,0,0,0-1,0A.85.85,0,0,0,27.27,10.19Z"/><path class="cls-1" d="M14.79,16.63A.82.82,0,1,1,14,15.8.82.82,0,0,1,14.79,16.63Z"/><path class="cls-1" d="M27.63,6.89a.82.82,0,1,1-.82-.82A.82.82,0,0,1,27.63,6.89Z"/></g></g></svg>